<svg width="23" height="24" viewBox="0 0 23 24" fill="none" xmlns="http://www.w3.org/2000/svg">
<path d="M2.85156 14.6048H9.7452C10.5899 13.8 11.7118 13.351 12.8785 13.351C14.0452 13.351 15.1672 13.8 16.0119 14.6048H19.1451" stroke="#404040" stroke-width="4" stroke-linecap="round" stroke-linejoin="round"/>
<path d="M7.86175 21.4982C9.93844 21.4982 11.6219 20.3759 11.6219 18.9915C11.6219 17.607 9.93844 16.4848 7.86175 16.4848C5.78506 16.4848 4.10156 17.607 4.10156 18.9915C4.10156 20.3759 5.78506 21.4982 7.86175 21.4982Z" fill="#404040" stroke="#404040" stroke-width="4" stroke-linecap="round" stroke-linejoin="round"/>
<path d="M12.8797 8.96463C12.8797 8.96463 10.373 6.45791 12.8797 2.69797C12.8797 2.69797 14.1332 3.95144 14.1332 5.20468" stroke="#81C341" stroke-width="4" stroke-linecap="round" stroke-linejoin="round"/>
<path d="M12.8845 11.4716C12.8845 7.71165 10.3778 5.83144 3.48438 5.83144C4.27962 6.26315 4.93263 6.91617 5.36435 7.71141C5.76059 8.50414 6.61782 12.0981 11.0045 10.8449" stroke="#81C341" stroke-width="4" stroke-linecap="round" stroke-linejoin="round"/>
<path d="M7.875 8.96418C7.875 8.96418 10.1029 7.71095 11.9824 8.33744" stroke="#81C341" stroke-width="4" stroke-linecap="round" stroke-linejoin="round"/>
<path d="M6.625 18.9917C6.625 18.9917 12.8919 20.2452 12.8919 16.485V11.4716C12.8919 7.71166 13.5186 5.83145 20.412 5.83145C19.7912 6.29594 19.3487 6.95965 19.1588 7.71143C18.9486 8.57229 18.5321 10.8449 14.7721 10.8449" stroke="#81C341" stroke-width="4" stroke-linecap="round" stroke-linejoin="round"/>
<path d="M16.6491 8.33816C16.6491 8.33816 16.0223 7.71143 13.5156 7.71143" stroke="#81C341" stroke-width="4" stroke-linecap="round" stroke-linejoin="round"/>
<path d="M15.3828 17.1115H16.6363" stroke="#404040" stroke-width="4" stroke-linecap="round" stroke-linejoin="round"/>
<path d="M14.1328 20.2449H15.3863" stroke="#404040" stroke-width="4" stroke-linecap="round" stroke-linejoin="round"/>
<path d="M17.8906 19.6182H19.1441" stroke="#404040" stroke-width="4" stroke-linecap="round" stroke-linejoin="round"/>
</svg>
