<svg width="23" height="22" viewBox="0 0 23 22" fill="none" xmlns="http://www.w3.org/2000/svg">
<path d="M5.07196 2.05728C6.0529 1.07634 7.73596 1.03817 8.67389 1.97562L10.6051 3.90681C10.1025 4.41081 8.78431 5.73025 8.68863 5.82568C8.11789 6.40342 7.42071 6.84064 6.6521 7.10284C6.42455 7.18157 6.19281 7.24763 5.95795 7.30072L6.08383 7.84289C7.22181 7.61046 8.26524 7.04557 9.08197 6.21975C9.09768 6.20405 10.4724 4.8288 10.9989 4.30064L12.9422 6.24391L12.9364 6.24971C13.5253 6.82905 14.2235 7.28568 14.9902 7.59314C15.757 7.90059 16.5772 8.05275 17.4033 8.04077C17.7935 8.0404 18.1831 8.00881 18.5683 7.9463L18.7669 7.91441L18.7991 7.71556C19.1455 5.56136 18.527 3.50839 17.1022 2.08362C16.8939 1.87529 16.6704 1.6826 16.4337 1.50713C15.7423 1.00127 14.9076 0.729229 14.0509 0.730596H6.91279V0.746301C6.07672 0.749575 5.27485 1.07858 4.67741 1.66346C3.63353 2.72853 2.96043 4.10149 2.75781 5.579L3.30917 5.65776C3.49463 4.29937 4.11276 3.03685 5.07196 2.05728Z" fill="#404040"/>
<path d="M21.5298 10.834C21.8971 12.1718 21.0976 13.6536 19.819 14.0047L17.1854 14.7278C17.0303 14.1661 16.6715 12.8619 16.5331 12.3627L16.4644 12.1131C16.132 10.9022 16.2134 9.7951 16.737 8.4114L16.2161 8.21449C15.6553 9.69677 15.5664 10.9447 15.9278 12.261L15.9964 12.5106C16.3347 13.745 16.5449 14.5041 16.6476 14.8752L13.9971 15.6029L13.9949 15.595C12.0519 16.1284 10.4991 17.6066 9.73461 19.6504L9.66406 19.8389L9.82111 19.9647C10.9892 20.9327 12.4539 21.4708 13.9708 21.4895C14.8028 21.4897 15.6257 21.3163 16.3869 20.9802C17.1686 20.6296 17.818 20.0386 18.2405 19.2933L19.8939 16.3887L19.8951 16.3867L21.7714 13.0897L21.7579 13.082C22.1685 12.3538 22.2791 11.4943 22.0664 10.6859C21.6766 9.31868 20.8752 8.10465 19.7711 7.2089L19.616 7.08447L19.6124 7.08157L19.4418 7.30168L19.2676 7.51913L19.3051 7.54909C20.3771 8.37962 21.1564 9.53032 21.5298 10.834Z" fill="#404040"/>
<path d="M2.21254 16.4273L4.10267 19.7164L4.11354 19.7101C4.12175 19.7239 4.12804 19.7384 4.1377 19.7521C4.56271 20.4527 5.23727 20.9662 6.02565 21.1895C6.58511 21.3393 7.1619 21.4147 7.74108 21.4137C8.64399 21.4118 9.53833 21.2385 10.3766 20.9029L10.1702 20.3856C8.90033 20.9018 7.4979 20.995 6.17085 20.6514C5.51953 20.466 4.96268 20.0406 4.61246 19.461C4.43423 19.1836 4.31499 18.8725 4.26216 18.547C4.20933 18.2216 4.22404 17.8887 4.30538 17.5692L5.01765 14.9322C5.3443 15.0199 6.05077 15.2101 7.53716 15.6112L7.63598 15.638C8.64554 15.9052 9.55429 16.4632 10.2492 17.2428L10.6554 16.8617C9.89053 16.0052 8.89065 15.3926 7.78022 15.1002L7.6814 15.0736C6.16965 14.6657 5.47985 14.4799 5.16213 14.3946L5.87875 11.7415L5.88648 11.7437C6.41174 9.79825 5.92538 7.71049 4.55134 6.01535L4.42473 5.85902L4.23652 5.93151C2.19611 6.70466 0.724464 8.26281 0.198719 10.208C0.121908 10.4925 0.0661871 10.7822 0.0320076 11.0749C-0.0617236 11.926 0.118383 12.7848 0.546155 13.5265L2.21254 16.4273Z" fill="#404040"/>
<path d="M12.6345 5.15032L13.945 3.48755L15.9005 5.44315L14.7553 6.87784C14.2481 6.6264 13.7835 6.29712 13.3781 5.90197L13.3825 5.89762L12.6345 5.15032ZM15.2835 7.10737L16.2968 5.83818L17.9211 7.46278C17.0265 7.53881 16.1261 7.41783 15.2832 7.10833L15.2835 7.10737ZM18.315 7.06919L16.1207 4.87512H18.1036C18.3039 5.58843 18.3755 6.33173 18.315 7.07016V7.06919ZM17.9146 4.31821H15.5637L13.7128 2.46675H16.6967C16.7005 2.47061 16.7049 2.474 16.7087 2.4781C17.2319 3.00325 17.6423 3.62964 17.9149 4.31894L17.9146 4.31821ZM14.0488 1.28745C14.7584 1.28683 15.451 1.50381 16.0334 1.90911H13.1549L12.9082 1.66267L12.7724 1.53751C12.6733 1.44738 12.5684 1.36384 12.4583 1.28745H14.0488ZM10.7045 1.28745C11.3307 1.28672 11.9341 1.52237 12.3941 1.94729L12.5219 2.06447L13.5477 3.09035L12.2389 4.75384L9.06659 1.58221C8.95664 1.47424 8.83765 1.37587 8.71094 1.28817L10.7045 1.28745Z" fill="#81C341"/>
<path d="M14.0736 16.1518L14.0753 16.1576L15.0941 15.8778L15.8915 17.839L13.2246 18.5716L12.5442 16.8665C13.0136 16.5499 13.5296 16.3088 14.0736 16.1518ZM12.0822 17.2118L12.6838 18.7199L10.4688 19.3283C10.8454 18.5133 11.3961 17.7908 12.0822 17.2118ZM13.6082 19.0434L12.6275 20.7668C11.9088 20.5881 11.2277 20.2828 10.6161 19.8651L13.6082 19.0434ZM13.2052 20.878L14.3679 18.8349L16.8937 18.1415L15.4177 20.7349L15.402 20.7398C14.6868 20.9349 13.9393 20.9818 13.2052 20.878ZM17.7509 19.0176C17.4004 19.6346 16.8691 20.1293 16.2287 20.4351L17.6543 17.932L17.9903 17.8397L18.1662 17.7834C18.2937 17.7417 18.4184 17.6916 18.5393 17.6334L17.7509 19.0176ZM19.404 16.1129C19.0949 16.6565 18.5923 17.0636 17.9964 17.2531L17.8311 17.306L16.4322 17.6902L15.6349 15.7288L19.9597 14.541C20.1079 14.4989 20.2522 14.4442 20.391 14.3774L19.404 16.1129Z" fill="#81C341"/>
<path d="M3.76305 17.4244C3.72421 17.5728 3.69779 17.7242 3.68405 17.8769L2.69054 16.1482C2.37872 15.6059 2.28271 14.9661 2.42163 14.3562L2.45981 14.1871L2.83817 12.7857L4.93269 13.0933L3.76305 17.4244ZM3.70555 9.57542L5.51981 9.85352C5.55467 10.4187 5.50078 10.9859 5.3601 11.5344L5.3543 11.5327L5.07911 12.553L2.98459 12.2462L3.70555 9.57542ZM3.85052 9.03446L4.44947 6.81671C4.96109 7.55456 5.30468 8.39563 5.45602 9.28066L3.85052 9.03446ZM3.91189 6.67126L3.10273 9.66724L2.11503 7.94769C2.63383 7.41878 3.2428 6.98662 3.91334 6.67151L3.91189 6.67126ZM0.732773 10.3532C0.927211 9.63761 1.26569 8.96928 1.72748 8.38912L2.89881 10.4276L2.21578 12.9565L0.728907 10.3691C0.730357 10.364 0.731081 10.3585 0.732773 10.3532ZM0.575484 11.2198L2.01041 13.7169L1.91956 14.0534L1.87873 14.2332C1.84998 14.3644 1.82997 14.4973 1.81881 14.6311L1.02512 13.2503C0.671092 12.6355 0.514154 11.9269 0.575484 11.2201V11.2198Z" fill="#81C341"/>
</svg>
