<svg width="28" height="29" viewBox="0 0 28 29" fill="none" xmlns="http://www.w3.org/2000/svg">
<path d="M24.1603 15.9906C24.4017 15.8107 24.5977 15.5769 24.7328 15.3078C24.8678 15.0388 24.9382 14.7419 24.9382 14.4408C24.9382 14.1398 24.8678 13.8429 24.7328 13.5738C24.5977 13.3047 24.4017 13.0709 24.1603 12.891C23.8116 12.6311 23.5606 12.2613 23.4481 11.8412C23.3355 11.4211 23.3679 10.9753 23.5401 10.5759C23.6592 10.2994 23.7121 9.99887 23.6945 9.69832C23.6769 9.39777 23.5893 9.1055 23.4388 8.84478C23.2882 8.58406 23.0789 8.36212 22.8274 8.19663C22.5759 8.03114 22.2892 7.92667 21.9902 7.89158C21.5583 7.84094 21.156 7.64612 20.8485 7.3386C20.541 7.03109 20.3462 6.62887 20.2955 6.19694C20.2604 5.89793 20.156 5.61123 19.9905 5.35974C19.825 5.10824 19.603 4.89888 19.3423 4.74834C19.0816 4.5978 18.7893 4.51025 18.4888 4.49266C18.1882 4.47506 17.8877 4.52791 17.6112 4.647C17.2119 4.8191 16.7661 4.8515 16.3461 4.73896C15.926 4.62641 15.5562 4.37549 15.2964 4.02678C15.1164 3.78539 14.8826 3.58936 14.6136 3.45431C14.3445 3.31927 14.0476 3.24895 13.7466 3.24895C13.4455 3.24895 13.1486 3.31927 12.8795 3.45431C12.6105 3.58936 12.3766 3.78539 12.1967 4.02678C11.9369 4.37555 11.567 4.6265 11.1469 4.73905C10.7268 4.85159 10.281 4.81916 9.88164 4.647C9.60513 4.52791 9.30461 4.47506 9.00406 4.49266C8.70351 4.51025 8.41124 4.5978 8.15052 4.74834C7.8898 4.89888 7.66786 5.10824 7.50237 5.35974C7.33688 5.61123 7.23241 5.89793 7.19732 6.19694C7.14668 6.62887 6.95186 7.03109 6.64434 7.3386C6.33683 7.64612 5.93461 7.84094 5.50268 7.89158C5.20369 7.9267 4.91703 8.03118 4.66557 8.19669C4.4141 8.36219 4.20477 8.58415 4.05425 8.84487C3.90374 9.10558 3.81619 9.39785 3.79861 9.69838C3.78102 9.99891 3.83389 10.2994 3.95297 10.5759C4.12511 10.9753 4.1575 11.4211 4.04491 11.8412C3.93232 12.2613 3.68133 12.6312 3.33252 12.891C3.09113 13.0709 2.8951 13.3047 2.76005 13.5738C2.62501 13.8429 2.55469 14.1398 2.55469 14.4408C2.55469 14.7419 2.62501 15.0388 2.76005 15.3078C2.8951 15.5769 3.09113 15.8107 3.33252 15.9906C3.68133 16.2504 3.93232 16.6203 4.04491 17.0404C4.1575 17.4605 4.12511 17.9063 3.95297 18.3057C3.83384 18.5822 3.78096 18.8827 3.79852 19.1833C3.81608 19.4839 3.90359 19.7762 4.05411 20.0369C4.20463 20.2977 4.41399 20.5196 4.66548 20.6851C4.91697 20.8507 5.20366 20.9552 5.50268 20.9903C5.93461 21.0409 6.33683 21.2357 6.64434 21.5433C6.95186 21.8508 7.14668 22.253 7.19732 22.6849C7.23241 22.9839 7.33688 23.2706 7.50237 23.5221C7.66786 23.7736 7.8898 23.983 8.15052 24.1335C8.41124 24.2841 8.70351 24.3716 9.00406 24.3892C9.30461 24.4068 9.60513 24.354 9.88164 24.2349C10.281 24.0627 10.7268 24.0303 11.1469 24.1428C11.567 24.2554 11.9369 24.5063 12.1967 24.8551C12.3766 25.0965 12.6105 25.2925 12.8795 25.4276C13.1486 25.5626 13.4455 25.6329 13.7466 25.6329C14.0476 25.6329 14.3445 25.5626 14.6136 25.4276C14.8826 25.2925 15.1164 25.0965 15.2964 24.8551C15.5562 24.5064 15.926 24.2555 16.3461 24.1429C16.7661 24.0304 17.2119 24.0628 17.6112 24.2349C17.8877 24.354 18.1882 24.4068 18.4888 24.3892C18.7893 24.3716 19.0816 24.2841 19.3423 24.1335C19.603 23.983 19.825 23.7736 19.9905 23.5221C20.156 23.2706 20.2604 22.9839 20.2955 22.6849C20.3462 22.253 20.541 21.8508 20.8485 21.5433C21.156 21.2357 21.5583 21.0409 21.9902 20.9903C22.2892 20.9552 22.5759 20.8507 22.8274 20.6852C23.0789 20.5197 23.2882 20.2978 23.4388 20.0371C23.5893 19.7764 23.6769 19.4841 23.6945 19.1835C23.7121 18.883 23.6592 18.5825 23.5401 18.306C23.3679 17.9065 23.3355 17.4607 23.448 17.0405C23.5605 16.6204 23.8115 16.2505 24.1603 15.9906Z" stroke="#404040" stroke-width="5" stroke-linecap="round" stroke-linejoin="round"/>
<path d="M22.6051 11.7047C25.4073 11.7047 27.6789 9.43306 27.6789 6.63086C27.6789 3.82867 25.4073 1.55704 22.6051 1.55704C19.8029 1.55704 17.5312 3.82867 17.5312 6.63086C17.5312 9.43306 19.8029 11.7047 22.6051 11.7047Z" fill="white"/>
<path d="M25.3284 4.6714C25.4147 4.78401 25.4571 4.92409 25.4478 5.06561C25.4386 5.20714 25.3783 5.34048 25.2782 5.44092L21.7352 8.996C21.6992 9.03034 21.6564 9.05678 21.6096 9.07366C21.5628 9.09054 21.513 9.09747 21.4634 9.09401C21.4137 9.09055 21.3654 9.07681 21.3214 9.0536C21.2773 9.0304 21.2386 8.99825 21.2077 8.95925L20.0115 7.44945C19.9822 7.4125 19.9648 7.36753 19.9615 7.32048C19.9582 7.27343 19.9693 7.2265 19.9932 7.18584L20.4576 6.39651C20.4786 6.3607 20.5088 6.33114 20.5451 6.31089C20.5813 6.29064 20.6223 6.28041 20.6638 6.28127C20.7054 6.28214 20.7459 6.29407 20.7813 6.31581C20.8167 6.33755 20.8456 6.36832 20.8652 6.40497L21.3764 7.36439C21.3876 7.38533 21.4042 7.40289 21.4244 7.41527C21.4447 7.42765 21.4679 7.43441 21.4917 7.43482C21.5154 7.43524 21.5388 7.42932 21.5595 7.41766C21.5802 7.406 21.5974 7.38902 21.6093 7.36849L23.6388 3.80258C23.6866 3.71853 23.7545 3.6476 23.8364 3.59616C23.9183 3.54472 24.0116 3.51434 24.1081 3.50776C24.2046 3.50119 24.3012 3.51862 24.3893 3.55846C24.4774 3.59831 24.5542 3.65935 24.613 3.73613L25.3284 4.6714Z" fill="#81C341"/>
<path d="M25.8702 6.03358L25.357 6.54868C25.4497 7.20676 25.3335 7.87735 25.0246 8.46579C24.7157 9.05423 24.2298 9.5308 23.6355 9.82821C23.0412 10.1256 22.3685 10.2289 21.7123 10.1234C21.0562 10.0178 20.4497 9.70893 19.9786 9.2402C19.5075 8.77147 19.1955 8.1666 19.0867 7.511C18.9778 6.85539 19.0776 6.18216 19.372 5.58634C19.6664 4.99052 20.1405 4.50219 20.7273 4.19032C21.3142 3.87846 21.9842 3.75878 22.6427 3.8482L22.9051 3.38698C22.9679 3.27674 23.0452 3.17539 23.1349 3.08568C22.2758 2.88482 21.3745 2.97329 20.5709 3.33731C19.7672 3.70134 19.1064 4.32056 18.6908 5.09878C18.2753 5.87701 18.1283 6.77067 18.2729 7.64098C18.4174 8.51128 18.8452 9.3095 19.49 9.91165C20.1348 10.5138 20.9604 10.8862 21.8385 10.9709C22.7167 11.0557 23.5982 10.8481 24.3462 10.3803C25.0943 9.9126 25.6669 9.21093 25.9752 8.38433C26.2835 7.55773 26.3102 6.65247 26.0511 5.80913C25.9986 5.88993 25.938 5.96513 25.8702 6.03358Z" fill="#7FB713"/>
<path d="M18.379 14.8019C18.4142 14.7956 18.4504 14.7962 18.4853 14.8038C18.5203 14.8114 18.5534 14.8259 18.5828 14.8463C18.6122 14.8667 18.6373 14.8927 18.6566 14.9228C18.676 14.9529 18.6892 14.9865 18.6955 15.0218C18.7019 15.057 18.7012 15.0931 18.6936 15.1281C18.686 15.163 18.6716 15.1962 18.6511 15.2256C18.6307 15.2549 18.6047 15.28 18.5746 15.2994C18.5445 15.3187 18.5109 15.3319 18.4757 15.3383C17.6278 15.5068 16.8368 15.8883 16.177 16.4468C15.5604 16.9672 15.1267 17.5925 15.0474 18.1864C15.0416 18.231 15.0248 18.2736 14.9985 18.3101C14.9721 18.3467 14.9372 18.3761 14.8967 18.3959C14.5622 18.6182 14.2815 18.9124 14.0752 19.257C13.7703 19.7295 13.529 20.2401 13.3576 20.7757L13.0979 20.6914L13.3581 20.7764C13.3367 20.8428 13.2907 20.8985 13.2296 20.9321C13.1685 20.9657 13.0968 20.9746 13.0293 20.9572C12.9618 20.9397 12.9035 20.8971 12.8664 20.8381C12.8292 20.7791 12.816 20.7081 12.8295 20.6397C13.1793 18.2453 12.979 16.4156 12.4571 14.9444C11.9593 13.604 11.1732 12.3893 10.1543 11.386C10.1042 11.3338 10.0768 11.2639 10.0782 11.1915C10.0796 11.1192 10.1097 11.0503 10.1618 11.0002C10.214 10.95 10.2839 10.9226 10.3563 10.924C10.4287 10.9254 10.4975 10.9555 10.5477 11.0076C11.6214 12.0664 12.4491 13.3484 12.9722 14.7628C13.4435 16.1546 13.634 17.6262 13.5325 19.0922C13.5614 19.0456 13.5905 19.0001 13.62 18.9557C13.8565 18.5747 14.1654 18.2439 14.5292 17.9817C14.6667 17.2902 15.1538 16.5959 15.8247 16.0298C16.5583 15.41 17.4377 14.9872 18.38 14.8014L18.379 14.8019Z" fill="#78BD00"/>
<path d="M18.8803 17.9958C19.9562 17.025 20.7798 15.5449 21.4571 14.3042C21.4694 14.2858 21.4794 14.266 21.4868 14.2452C21.5114 14.177 21.5079 14.1017 21.4771 14.036C21.4462 13.9703 21.3905 13.9195 21.3223 13.8949C20.1528 13.4495 18.8852 13.3266 17.652 13.539C16.9722 13.6625 16.3304 13.942 15.7771 14.3556C15.2416 14.763 14.8357 15.3169 14.6086 15.9503C14.349 16.7225 14.3048 17.5509 14.4808 18.3463C14.4871 18.3886 14.5032 18.4288 14.5278 18.4637C14.5525 18.4986 14.5849 18.5272 14.6226 18.5474C16.3632 19.4737 17.7505 19.0146 18.8803 17.9958Z" fill="#78BD00"/>
<path d="M8.29542 14.4351C8.95188 15.9302 10.3566 16.8169 13.0689 16.2578C13.1097 16.2526 13.1489 16.2383 13.1834 16.2159C13.2179 16.1934 13.2469 16.1635 13.2683 16.1283C13.6884 15.4772 13.9516 14.7374 14.0371 13.9671C14.108 13.1624 13.8959 12.3581 13.4371 11.6931C12.4108 10.1613 10.136 9.14555 8.35365 8.99068C8.28368 8.98257 8.21328 9.00179 8.15715 9.04433C8.10101 9.08687 8.06347 9.14945 8.05236 9.219C7.7675 10.9948 7.66361 12.9963 8.29542 14.4356V14.4351Z" fill="#78BD00"/>
<path d="M12.8225 16.31C12.7373 15.8459 12.6151 15.3893 12.4571 14.9447C11.9593 13.6043 11.1732 12.3895 10.1543 11.3862C10.1042 11.3341 10.0768 11.2641 10.0782 11.1918C10.0796 11.1194 10.1097 11.0506 10.1618 11.0004C10.214 10.9502 10.284 10.9228 10.3563 10.9242C10.4287 10.9256 10.4975 10.9557 10.5477 11.0079C11.6214 12.0667 12.4491 13.3487 12.9722 14.763C13.1233 15.1917 13.2444 15.6304 13.3347 16.0759C13.1684 16.1633 12.9974 16.2415 12.8225 16.31Z" fill="white"/>
<path d="M18.391 14.8017C18.4262 14.7953 18.4623 14.796 18.4973 14.8036C18.5323 14.8112 18.5654 14.8256 18.5948 14.846C18.6242 14.8664 18.6492 14.8925 18.6686 14.9226C18.6879 14.9527 18.7011 14.9863 18.7075 15.0215C18.7138 15.0567 18.7132 15.0929 18.7056 15.1278C18.6979 15.1628 18.6835 15.1959 18.6631 15.2253C18.6427 15.2547 18.6167 15.2798 18.5866 15.2991C18.5565 15.3185 18.5228 15.3317 18.4876 15.338C17.6398 15.5066 16.8487 15.888 16.1889 16.4465C15.5723 16.967 14.7579 18.5314 14.6784 18.5703C14.5736 18.4123 14.4998 18.2359 14.4609 18.0504C14.5984 17.3589 15.1662 16.5963 15.8381 16.0302C16.5717 15.4104 17.4511 14.9877 18.3934 14.8019L18.391 14.8017Z" fill="white"/>
</svg>
