<svg width="42" height="42" viewBox="0 0 42 42" fill="none" xmlns="http://www.w3.org/2000/svg">
<g clip-path="url(#clip0_246_2346)">
<path d="M1.2101 34.8456C0.638164 34.5111 0.453125 34.0182 0.453125 33.3141C0.469947 23.3677 0.469947 13.4214 0.486768 3.47501C0.486768 3.36938 0.50359 3.24616 0.486768 3.14053C0.369016 2.10189 1.02506 1.53855 2.00072 1.57376C3.86793 1.62657 5.71832 1.59137 7.58553 1.59137C7.93879 2.13709 7.83786 2.68282 7.65282 3.24616C7.43413 3.4398 7.18181 3.4222 6.91266 3.4222C5.78561 3.4222 4.67537 3.4222 3.54832 3.4222C2.77452 3.4222 2.6063 3.59824 2.6063 4.39043C2.6063 13.4742 2.6063 22.5579 2.6063 31.6417C2.6063 32.4162 2.74088 32.5571 3.48103 32.5571C6.37437 32.5571 9.2677 32.6099 12.161 32.5395C13.9946 32.4867 15.8282 32.4514 17.6449 32.3634C17.8804 32.3458 18.0991 32.293 18.3178 32.2402C18.5533 32.2402 18.6374 32.3986 18.671 32.5923C18.772 33.2084 18.9402 33.807 19.0916 34.4231C19.142 34.6168 19.1757 34.828 18.9738 34.9864C18.7383 35.1273 18.4692 35.0921 18.2169 35.0921C15.4413 35.0921 12.6657 35.0921 9.90693 35.0921C7.28274 35.0921 4.67537 35.1097 2.05119 35.0921C1.7484 35.0921 1.42878 35.1449 1.2101 34.8456Z" fill="#E88827"/>
<path d="M17.041 1.60898C19.0091 1.60898 20.9604 1.60898 22.9286 1.60898C23.551 1.60898 23.8706 2.03148 24.1229 2.542C24.3584 3.07012 24.3248 3.65106 24.3248 4.21439C24.3248 5.35866 24.3248 6.50293 24.3248 7.6296C24.3248 16.0972 24.3248 24.5824 24.3248 33.05C24.3248 33.5605 24.3248 34.0534 24.022 34.5111C23.8201 34.8104 23.551 35.0393 23.2146 35.0569C22.2557 35.1097 21.3137 35.1625 20.3549 35.0217C20.1194 34.9865 20.0184 34.8104 19.9511 34.6168C19.7156 34.0358 19.5979 33.4197 19.497 32.7859C19.4633 32.6099 19.497 32.4339 19.6315 32.3106C19.8839 32.0818 20.2203 32.0642 20.5231 32.0114C20.7081 31.9761 20.8763 31.9585 21.0614 31.8881C21.8015 31.6065 21.9025 31.4656 21.9025 30.6382C21.9025 21.9594 21.9025 13.2629 21.9025 4.58408C21.9025 4.49606 21.9025 4.42564 21.9025 4.35523C21.8856 3.68627 21.667 3.43981 21.0109 3.42221C19.9007 3.4046 18.8073 3.42221 17.697 3.4046C17.4447 3.4046 17.1756 3.42221 16.9569 3.22856C16.7887 2.68283 16.6709 2.1371 17.041 1.60898Z" fill="#E88827"/>
<path d="M19.6597 32.4163C19.7269 33.2789 19.9456 34.1063 20.2821 34.916C20.568 35.0393 20.6858 35.3209 20.7362 35.585C20.9549 36.4652 21.4764 37.1518 22.0147 37.8207C23.0913 39.1939 24.4707 39.9508 26.1865 39.9332C26.6407 39.9332 27.0948 39.9332 27.549 39.898C28.6256 39.81 29.4835 39.2819 30.2742 38.5425C32.3096 36.6413 33.1338 34.1767 33.4535 31.448C33.588 30.2509 33.6385 29.0539 33.6217 27.8392C33.6048 25.5154 33.6048 23.1741 33.6217 20.8503C33.6217 20.3926 33.4366 20.111 33.0161 20.0405C30.9134 19.6885 29.5845 18.2273 28.3901 16.5549C28.2219 16.3085 28.0873 16.0796 28.3228 15.7979C28.3565 15.5339 28.4742 15.393 28.7434 15.4811C29.0125 15.4811 29.1807 15.6219 29.349 15.8331C29.7527 16.3437 30.1564 16.8542 30.5938 17.3295C32.4946 19.3892 35.6571 19.4596 37.6421 17.4879C38.1467 16.995 38.6009 16.4317 39.0046 15.8507C39.1728 15.6043 39.3747 15.4459 39.6943 15.4987C40.0139 15.4459 40.1653 15.6395 40.2999 15.886C40.384 16.1148 40.384 16.3437 40.2494 16.5197C39.156 18.0513 37.9785 19.4948 36.1113 20.0405C35.9431 20.0934 35.758 20.1286 35.5898 20.1814C35.102 20.3222 35.0179 20.4454 35.0011 20.9912C34.9842 22.3995 35.0011 23.8078 35.0011 25.2162C35.0011 26.4484 35.0347 27.6807 34.9842 28.9306C34.9001 31.0783 34.7151 33.226 33.9917 35.2681C33.1002 37.8383 31.519 39.7396 29.1303 40.8663C28.4742 41.1831 27.7509 41.3592 27.0276 41.3592C25.8669 41.3768 24.7398 41.3064 23.6632 40.7782C23.4782 40.6902 23.31 40.6022 23.1586 40.479C21.3586 39.2819 20.0297 37.6623 19.1718 35.6202C18.8522 35.4442 18.7849 35.1977 18.9363 34.8632C18.7176 34.0358 18.4653 33.226 18.3644 32.3634C18.1793 32.293 18.1457 32.117 18.1121 31.9585C18.0111 31.3776 17.927 30.7791 17.9607 30.1805C18.1457 29.5996 18.1121 29.0011 18.1121 28.4025C18.1121 25.6739 18.1121 22.9452 18.1121 20.2166C18.1121 20.0053 18.0784 19.7765 18.1793 19.5652C18.7008 19.3012 19.2223 19.3716 19.4241 19.7413C19.4746 20.6215 19.441 21.5017 19.441 22.3995C19.441 24.3888 19.441 26.378 19.441 28.3673C19.441 29.494 19.5587 30.603 19.6597 31.7121C19.7606 31.9586 19.7606 32.1874 19.6597 32.4163Z" fill="black"/>
<path d="M17.0418 1.60879C17.0418 2.15452 17.0418 2.70025 17.0418 3.22837C17.3446 3.65087 17.2773 4.10858 17.1259 4.53108C16.9914 4.91837 16.6213 4.93597 16.2849 4.93597C13.6438 4.93597 10.986 4.95358 8.34501 4.93597C7.97493 4.93597 7.62167 4.86556 7.4871 4.46066C7.35253 4.03816 7.26842 3.59806 7.58803 3.21077C7.58803 2.66504 7.58803 2.11931 7.58803 1.57358C7.60485 0.728581 7.68896 0.658164 8.53005 0.658164C9.95989 0.658164 11.4066 0.658164 12.8364 0.658164C13.0383 0.658164 13.2233 0.622956 13.4083 0.728581C13.2738 0.992643 13.0214 0.93983 12.8028 0.93983C11.7766 0.957435 10.7505 0.93983 9.72439 0.93983C9.57299 0.93983 9.4216 0.93983 9.2702 0.957435C9.08516 0.975039 8.93377 1.04546 8.93377 1.25671C8.91695 1.48556 9.06834 1.59118 9.2702 1.62639C9.40478 1.644 9.53935 1.644 9.67392 1.644C11.4738 1.644 13.2738 1.644 15.0737 1.644C15.3597 1.644 15.7802 1.74962 15.7634 1.27431C15.7466 0.85181 15.3428 0.975039 15.0737 0.957435C14.8045 0.93983 14.5354 0.957435 14.2494 0.93983C14.0812 0.922226 13.913 0.922226 13.8289 0.728581C14.7541 0.570143 15.6961 0.622956 16.6213 0.693372C17.1259 0.710976 17.0082 1.2391 17.0418 1.60879Z" fill="black"/>
<path d="M41.467 4.7425C41.5847 5.1474 41.7193 5.5699 41.7193 5.99239C41.7025 8.01687 41.8707 10.0414 41.5679 12.0658C41.366 13.439 40.9791 14.7065 40.2053 15.8507C40.054 15.7275 39.8857 15.6043 39.7343 15.4986C40.5586 14.1607 40.9623 12.6996 41.0464 11.1152C41.1474 9.23156 41.1978 7.34792 41.0296 5.48187C40.9791 4.84812 40.6595 4.32 40.1044 3.98552C39.6334 3.93271 39.1624 3.79188 38.6914 3.77427C38.5736 3.77427 38.4727 3.70385 38.3886 3.59823C38.2709 3.35177 38.254 3.14052 38.4895 2.96448C39.8857 2.84125 40.8614 3.4574 41.467 4.7425Z" fill="#A6A6A6"/>
<path d="M28.7794 15.4634C28.6448 15.5691 28.4934 15.6747 28.3589 15.7803C27.7365 15.0761 27.4673 14.1783 27.215 13.2981C26.6935 11.3617 26.8281 9.37239 26.8281 7.40073C26.8281 6.60854 26.744 5.81635 26.9795 5.04177C27.4169 3.59823 28.6617 2.77084 30.0915 2.98209C30.3102 3.19334 30.2429 3.40458 30.0915 3.61583C29.9569 3.77427 29.7719 3.75667 29.5869 3.79188C28.4598 3.93271 27.7869 4.60167 27.6692 5.78115C27.501 7.38312 27.5683 8.9675 27.6355 10.5695C27.686 11.8194 27.9047 13.0517 28.2748 14.2311C28.3084 14.3192 28.3084 14.4248 28.2916 14.5128C28.4262 14.8649 28.6112 15.1642 28.7794 15.4634Z" fill="#A6A6A6"/>
<path d="M13.8259 0.728882C14.3979 0.728882 14.9698 0.746486 15.5586 0.728882C15.9118 0.728882 16.0464 0.887319 16.0296 1.2394C16.0128 1.57388 16.0128 1.87315 15.5586 1.87315C13.4559 1.87315 11.3532 1.87315 9.25044 1.87315C8.72897 1.87315 8.45982 1.34503 8.69533 0.887319C8.79626 0.693674 8.98129 0.746486 9.13269 0.746486C10.5625 0.746486 11.9756 0.728882 13.4054 0.728882C13.5568 0.728882 13.6914 0.728882 13.8259 0.728882Z" fill="#626668"/>
<path d="M38.4881 2.94689C38.4881 3.15814 38.4881 3.36939 38.4881 3.58064C38.5554 3.84471 38.4208 4.02075 38.2358 4.10877C37.7816 4.30241 37.3106 4.40804 36.8396 4.16158C36.3518 3.96793 36.1835 3.59825 36.3181 2.9821C36.3854 2.61241 36.6714 2.45398 37.1592 2.50679C37.3947 2.542 37.647 2.52439 37.8825 2.542C38.1517 2.5596 38.3704 2.68283 38.4881 2.94689Z" fill="#5A6D76"/>
<path d="M30.3989 3.96793C30.2812 3.84471 30.1803 3.72148 30.0625 3.59825C30.0793 3.387 30.0961 3.19335 30.0961 2.9821C30.2139 2.66523 30.4326 2.542 30.7522 2.52439C31.055 2.52439 31.3409 2.48919 31.6437 2.45398C32.0306 2.41877 32.1484 2.71804 32.283 2.9821C32.653 3.56304 32.3839 4.17918 31.7278 4.232C31.3241 4.26721 30.9204 4.26721 30.5503 4.03835C30.5167 4.03835 30.4662 4.00314 30.3989 3.96793Z" fill="#5A6D77"/>
<path d="M7.57171 3.21097C7.58853 3.51024 7.60536 3.80951 7.60536 4.10878C7.60536 4.51368 7.77357 4.72493 8.17729 4.72493C10.9361 4.72493 13.678 4.72493 16.4368 4.72493C16.8573 4.72493 17.0423 4.51368 17.0255 4.07357C17.0087 3.79191 17.0255 3.51024 17.0423 3.21097C18.4217 3.21097 19.8011 3.21097 21.1805 3.21097C21.8702 3.21097 22.0889 3.43982 22.0889 4.14399C22.1057 13.1221 22.1225 22.1002 22.1393 31.0783C22.1393 31.6065 21.8533 31.8001 21.4833 31.9586C20.9113 32.205 20.2889 32.2578 19.6665 32.3811C19.3806 31.3072 19.3301 30.1981 19.3301 29.0891C19.2964 25.9731 19.3133 22.8572 19.3133 19.7413C19.2628 19.3364 19.5824 19.2131 19.8179 19.0547C20.8777 18.2977 21.0459 16.7662 20.2048 15.7803C19.4647 14.9353 18.1021 14.8473 17.261 15.6571C16.5545 16.3261 16.3695 17.6288 17.0423 18.5442C17.2778 18.8787 17.5806 19.0899 17.9339 19.2484C18.1189 19.3364 18.2535 19.4244 18.2199 19.6709C18.1862 20.7095 18.2703 21.7481 18.1694 22.7868C17.9339 23.0332 17.6311 22.9804 17.3619 22.9804C15.0574 22.9804 12.736 22.9804 10.4314 22.9804C10.2127 22.9804 10.0109 22.9804 9.79218 22.998C10.9529 23.0156 12.1136 23.0156 13.2743 23.0156C14.6705 23.0156 16.0499 23.0156 17.4461 23.0156C17.6984 23.0156 17.9675 22.9804 18.1694 23.2093C18.2535 24.0719 18.2367 24.9345 18.1862 25.8147C17.9675 26.0964 17.6647 26.026 17.3788 26.026C15.0742 26.026 12.7528 26.026 10.4482 26.026C10.2464 26.026 10.0277 26.026 9.82582 26.0436C10.8519 26.0612 11.8781 26.0612 12.9042 26.0612C14.4181 26.0612 15.9321 26.0612 17.4292 26.0612C17.6816 26.0612 17.9507 26.026 18.1694 26.2372C18.2871 26.6421 18.2199 27.047 18.2199 27.4519C18.2367 28.2265 18.203 28.9835 18.2367 29.758C18.2703 29.8989 18.2871 30.0397 18.2367 30.1981C18.2367 30.9199 18.3544 31.6417 18.4385 32.3635C18.3376 32.6099 18.1021 32.5395 17.9171 32.5571C13.0051 32.8036 8.07636 32.8036 3.16442 32.786C2.57566 32.786 2.39062 32.5747 2.39062 31.9586C2.39062 29.9869 2.39062 28.0328 2.39062 26.0612C2.39062 18.8083 2.39062 11.5553 2.39062 4.30243C2.39062 3.36941 2.5252 3.22857 3.41675 3.22857C4.79613 3.22857 6.19233 3.22857 7.57171 3.21097Z" fill="white"/>
<path d="M18.1292 19.5652C17.1704 19.1955 16.548 18.5266 16.4807 17.4175C16.4134 16.2556 17.1704 15.2522 18.2134 15.0233C19.3068 14.7945 20.3665 15.4106 20.7366 16.4493C21.1235 17.5583 20.703 18.773 19.6937 19.3363C19.5086 19.442 19.3068 19.5124 19.3068 19.7765C19.2899 19.618 19.2227 19.5476 19.0376 19.5652C18.7853 19.6004 18.533 19.5828 18.2806 19.5828C18.247 19.6004 18.2302 19.618 18.1965 19.618C18.1629 19.618 18.1461 19.5828 18.1292 19.5652Z" fill="#5F706D"/>
<path d="M18.2193 19.5652C18.2361 19.5652 18.2695 19.5652 18.2863 19.5828C18.2863 22.9804 18.2863 26.3956 18.303 29.7932C18.303 29.9341 18.3197 30.0749 18.2193 30.1981C18.2026 30.0749 18.2026 29.9517 18.1859 29.8284C18.1189 28.913 18.1859 27.9976 18.1524 27.0822C18.1189 25.8851 18.1691 24.688 18.1524 23.4909C18.1357 22.241 18.1524 21.0088 18.1524 19.7589C18.1691 19.706 18.1691 19.6356 18.2193 19.5652Z" fill="#17161A"/>
<path d="M24.3197 9.53126C24.2187 9.49601 24.2188 9.39026 24.2188 9.30214C24.2188 9.23164 24.2524 9.16114 24.3365 9.19639C24.4374 9.23164 24.4543 9.33739 24.4543 9.42551C24.4374 9.49601 24.387 9.53126 24.3197 9.53126Z" fill="#3F9E94"/>
<path d="M18.0958 23.2803C15.5052 23.2803 12.9147 23.2803 10.3409 23.2803C10.0718 23.2803 9.80266 23.2803 9.51669 23.2803C9.33165 23.2803 9.0625 23.3331 9.0625 23.0511C9.0625 22.7691 9.34847 22.822 9.53351 22.822C12.3932 22.822 15.2529 22.822 18.1126 22.8044C18.1799 22.963 18.1967 23.1216 18.0958 23.2803Z" fill="#D5D5D7"/>
<path d="M18.0958 26.3258C15.8921 26.3258 13.6885 26.3258 11.468 26.3258C10.8288 26.3258 10.1896 26.3258 9.56715 26.3258C9.36529 26.3258 9.0625 26.4139 9.0625 26.0967C9.0625 25.7794 9.36529 25.8675 9.56715 25.8675C12.41 25.8675 15.2529 25.8675 18.0958 25.8499C18.1967 26.0085 18.1967 26.1672 18.0958 26.3258Z" fill="#D5D5D6"/>
<path d="M14.3469 8.5274C15.9113 8.5274 17.4589 8.5274 19.0233 8.5274C19.1579 8.5274 19.2925 8.5274 19.427 8.54503C19.528 8.56265 19.5784 8.65078 19.5784 8.75653C19.5784 8.84465 19.4943 8.8799 19.4102 8.89752C19.2925 8.91515 19.1747 8.91515 19.0401 8.91515C15.8777 8.91515 12.7152 8.91515 9.55269 8.91515C9.48541 8.91515 9.4013 8.91515 9.33401 8.91515C9.21626 8.91515 9.06487 8.91515 9.04804 8.7389C9.03122 8.5274 9.19944 8.5274 9.33401 8.5274C10.1583 8.5274 10.9657 8.5274 11.79 8.5274C12.6479 8.5274 13.5058 8.5274 14.3469 8.5274Z" fill="#D5D3D8"/>
<path d="M14.3457 11.5729C15.9101 11.5729 17.4577 11.5729 19.0221 11.5729C19.1567 11.5729 19.2913 11.5729 19.4258 11.5906C19.5268 11.6082 19.5941 11.6963 19.5772 11.8021C19.5772 11.8902 19.4931 11.9254 19.4258 11.9431C19.3249 11.9607 19.2072 11.9607 19.1062 11.9607C15.9269 11.9607 12.7476 11.9607 9.56832 11.9607C9.50103 11.9607 9.41692 11.9607 9.34964 11.9607C9.23189 11.9431 9.08049 11.9607 9.06367 11.7844C9.04685 11.5729 9.21506 11.5729 9.34964 11.5729C10.1066 11.5729 10.8636 11.5729 11.6206 11.5729C12.5289 11.5729 13.4373 11.5729 14.3457 11.5729Z" fill="#D4D3D8"/>
<path d="M12.6299 19.1785C11.6374 19.1785 10.6281 19.1785 9.63563 19.1785C9.51788 19.1785 9.40013 19.1785 9.28238 19.1609C9.14781 19.1432 9.04688 19.0727 9.04688 18.9141C9.04688 18.7555 9.16463 18.7026 9.2992 18.7026C9.38331 18.7026 9.48424 18.7026 9.56835 18.7026C11.5701 18.7026 13.5551 18.7026 15.5569 18.7026C15.6746 18.7026 15.7924 18.7026 15.9101 18.7202C16.0615 18.7555 16.1625 18.8789 16.1456 19.0199C16.1288 19.1961 15.9606 19.1609 15.8597 19.1609C14.7831 19.1785 13.7065 19.1785 12.6299 19.1785Z" fill="#D4D4D6"/>
<path d="M12.5278 16.133C11.5521 16.133 10.5933 16.133 9.61762 16.133C9.48304 16.133 9.34847 16.1154 9.2139 16.0978C9.11296 16.0801 9.0625 15.992 9.0625 15.8863C9.0625 15.7805 9.12979 15.6924 9.2139 15.6748C9.33165 15.6571 9.4494 15.6395 9.56715 15.6395C11.5521 15.6395 13.5371 15.6395 15.522 15.6395C15.6903 15.6395 15.993 15.5161 15.9762 15.851C15.9594 16.1506 15.6903 16.1154 15.4716 16.1154C14.4959 16.1506 13.5034 16.133 12.5278 16.133Z" fill="#D6D4D9"/>
<path d="M7.68888 10.2174C7.68888 11.1504 6.9319 11.925 6.04035 11.9074C5.08151 11.8898 4.375 11.1504 4.375 10.1646C4.375 9.21397 5.1488 8.42178 6.05717 8.42178C6.96554 8.45699 7.7057 9.24918 7.68888 10.2174Z" fill="#A6B394"/>
<path d="M6.07512 15.6395C7.01714 15.6571 7.70683 16.3965 7.69 17.3647C7.67318 18.3329 6.91621 19.1075 5.99101 19.0899C5.06582 19.0723 4.34248 18.2625 4.37613 17.2943C4.40977 16.326 5.11628 15.6219 6.07512 15.6395Z" fill="#A4B192"/>
<path d="M6.04035 22.7692C6.9319 22.7692 7.68888 23.5261 7.7057 24.4768C7.72252 25.445 6.98237 26.2196 6.04035 26.2372C5.1488 26.2372 4.39182 25.4626 4.375 24.5296C4.375 23.5614 5.11516 22.7692 6.04035 22.7692Z" fill="#A4B093"/>
<path d="M18.0954 26.3252C18.0954 26.1668 18.0954 26.0083 18.0954 25.8323C18.0954 24.9873 18.0954 24.1247 18.0954 23.2797C18.0954 23.1213 18.0954 22.9628 18.0954 22.7868C18.0954 21.7129 18.1121 20.6215 18.1121 19.5476C18.1456 19.5476 18.1791 19.5476 18.1958 19.5652C18.1958 22.8396 18.1958 26.0964 18.1791 29.3707C18.1791 29.5292 18.1623 29.6876 18.1623 29.846C18.0117 29.1243 18.0954 28.4025 18.0787 27.6807C18.0954 27.2406 18.0954 26.7829 18.0954 26.3252Z" fill="#97969B"/>
<path d="M20.6562 17.3119C20.6394 18.4385 19.7479 19.354 18.6713 19.354C17.5947 19.354 16.7031 18.4033 16.7031 17.2943C16.7031 16.2028 17.6283 15.2346 18.6713 15.2346C19.7815 15.217 20.6562 16.1676 20.6562 17.3119Z" fill="#EDEDEE"/>
<path d="M6.0557 8.61542C6.87996 8.63302 7.56965 9.35479 7.56965 10.1822C7.55283 11.0624 6.87996 11.7666 6.02205 11.7666C5.21461 11.7666 4.5081 11.0272 4.5081 10.1822C4.49128 9.33719 5.21461 8.61542 6.0557 8.61542Z" fill="#E3EAD9"/>
<path d="M6.00614 18.9139C5.18188 18.9139 4.49219 18.2097 4.49219 17.3471C4.49219 16.5197 5.1987 15.7803 6.00614 15.7627C6.81358 15.7451 7.55374 16.4845 7.57056 17.2943C7.58738 18.2097 6.89769 18.9139 6.00614 18.9139Z" fill="#E3EAD8"/>
<path d="M7.57056 24.5296C7.57056 25.3394 6.8304 26.114 6.05661 26.1316C5.26599 26.1492 4.50901 25.357 4.49219 24.5296C4.49219 23.6846 5.21552 22.9276 6.03978 22.9276C6.84723 22.91 7.57056 23.667 7.57056 24.5296Z" fill="#E3EAD7"/>
<path d="M19.1451 17.2767C19.1115 17.5936 18.9601 17.7696 18.6741 17.7696C18.3713 17.7696 18.2031 17.5584 18.2199 17.2415C18.2367 16.9422 18.4218 16.7838 18.7077 16.8014C18.9937 16.819 19.1283 17.0126 19.1451 17.2767Z" fill="#4D4D4E"/>
<path d="M6.05787 8.79147C6.81485 8.79147 7.38679 9.42522 7.38679 10.235C7.36996 10.9744 6.74756 11.6257 6.04105 11.6257C5.30089 11.6257 4.69531 10.9568 4.69531 10.1822C4.69531 9.39001 5.28407 8.79147 6.05787 8.79147Z" fill="#83AB4E"/>
<path d="M6.01761 18.7202C5.24381 18.7202 4.67188 18.1393 4.67188 17.3119C4.67188 16.5725 5.26063 15.9388 5.95033 15.9212C6.75777 15.9036 7.36335 16.5373 7.36335 17.3823C7.38017 18.1393 6.79141 18.7202 6.01761 18.7202Z" fill="#83AB4E"/>
<path d="M6.02457 23.0861C6.76472 23.0861 7.38713 23.7198 7.38713 24.4944C7.37031 25.269 6.76472 25.9203 6.02457 25.9203C5.31806 25.9203 4.69565 25.269 4.69565 24.512C4.67883 23.7374 5.28441 23.0861 6.02457 23.0861Z" fill="#83AB4E"/>
<path d="M5.71667 11.0272C5.54845 11.0272 5.07744 10.4463 5.11109 10.3054C5.12791 10.2526 5.16155 10.1998 5.21202 10.1646C5.32977 10.1118 5.4307 10.1822 5.48117 10.2702C5.64938 10.6047 5.83442 10.4991 6.03628 10.3054C6.22132 10.147 6.40636 9.98854 6.60822 9.83011C6.70915 9.74208 6.8269 9.68927 6.92783 9.8125C7.04558 9.95333 6.94465 10.0414 6.84372 10.1294C6.52411 10.3934 6.2045 10.6575 5.88489 10.9216C5.8176 10.9744 5.75031 10.992 5.71667 11.0272Z" fill="#EFF2EC"/>
<path d="M7.02905 17.1711C6.94494 17.2239 6.86083 17.2767 6.79354 17.3295C6.50757 17.5583 6.2216 17.8048 5.93563 18.0337C5.80106 18.1393 5.64967 18.2801 5.49827 18.0865C5.33005 17.8928 5.07773 17.7168 5.09455 17.4351C5.11137 17.2591 5.29641 17.2415 5.39734 17.3823C5.63284 17.7696 5.85153 17.5935 6.08703 17.3823C6.25525 17.2239 6.44029 17.083 6.62533 16.9422C6.70943 16.8718 6.79354 16.8894 6.87765 16.9422C6.94494 16.995 6.96176 17.0654 7.02905 17.1711Z" fill="#EEF1ED"/>
<path d="M5.68309 25.3394C5.53169 25.3394 5.07751 24.7584 5.11115 24.6C5.17844 24.3711 5.32983 24.3711 5.43076 24.5296C5.66627 24.9169 5.88495 24.7408 6.12045 24.5296C6.28867 24.3711 6.47371 24.2303 6.64192 24.0895C6.74285 24.0191 6.84379 24.0014 6.91107 24.1071C6.97836 24.1951 6.96154 24.3007 6.87743 24.3711C6.50735 24.688 6.12045 25.0049 5.75037 25.3042C5.75037 25.3394 5.69991 25.3394 5.68309 25.3394Z" fill="#EFF0ED"/>
</g>
<defs>
<clipPath id="clip0_246_2346">
<rect width="41.2973" height="40.7536" fill="white" transform="translate(0.453125 0.623138)"/>
</clipPath>
</defs>
</svg>
